# xmcd
#
# Track frame offsets: 
#        150
#        11333
#        27259
#        40959
#        53625
#        75088
#        87711
#        98438
#        118422
#        129961
#        141791
#        151592
#        162477
#        178362
#        192214
#        205007
#        226977
#        239699
#        250674
#        270579
#        282107
#        293592
#
# Disc length: 4034 seconds
#
# Revision: 0
# Processed by: cddbd v1.5.2PL0 Copyright (c) Steve Scherf et al.
# Submitted via: ExactAudioCopy v0.95b3
#
DISCID=210fc016
DTITLE=The Rascals  - Collections - The Young Rascals - The Complete A
DTITLE=tlantic Discography (1965-1971) - Disc 02
DYEAR=1900
DGENRE=
TTITLE0=What is the Reason [Mono]
TTITLE1=Since I Fell for You [Mono]
TTITLE2=Lonely too Long [Mono]
TTITLE3=No Love to Give [Mono]
TTITLE4=Mickey's Monkey\\Love Lights [Mono]
TTITLE5=Come on Up [Mono]
TTITLE6=Too Many Fish in the Sea [Mono]
TTITLE7=More [Mono]
TTITLE8=Nineteen Fifty-six [Mono]
TTITLE9=Love is a Beautiful Thing [Mono]
TTITLE10=Land of 1000 dances [Mono]
TTITLE11=What is the Reason [Stereo]
TTITLE12=Since I Fell for You [Stereo]
TTITLE13=Lonely too Long [Stereo]
TTITLE14=No Love to Give [Stereo]
TTITLE15=Mickey's Monkey\\Love Lights [Stereo]
TTITLE16=Come on Up [Stereo]
TTITLE17=Too Many Fish in the Sea [Stereo]
TTITLE18=More [Stereo]
TTITLE19=Nineteen Fifty-six [Stereo]
TTITLE20=Love is a Beautiful Thing [Stereo]
TTITLE21=Land of 1000 dances [Stereo]
EXTD=
EXTT0=
EXTT1=
EXTT2=
EXTT3=
EXTT4=
EXTT5=
EXTT6=
EXTT7=
EXTT8=
EXTT9=
EXTT10=
EXTT11=
EXTT12=
EXTT13=
EXTT14=
EXTT15=
EXTT16=
EXTT17=
EXTT18=
EXTT19=
EXTT20=
EXTT21=
PLAYORDER=
